<svg xmlns="http://www.w3.org/2000/svg" viewBox="0 0 100 100">
  <!-- Background circle -->
  <circle cx="50" cy="50" r="48" fill="#7c3aed" />
  <circle cx="50" cy="50" r="44" fill="#8b5cf6" />
  
  <!-- Music note -->
  <path d="M63,30v25c0,0.2-0.1,0.4-0.2,0.6c-1.9,5.2-7.5,7.9-12.7,6c-5.2-1.9-7.9-7.5-6-12.7c1.4-4,5.2-6.6,9.4-6.6
    c1.1,0,2.3,0.2,3.4,0.6V30l-23,5v25c0,0.2-0.1,0.4-0.2,0.6c-1.9,5.2-7.5,7.9-12.7,6c-5.2-1.9-7.9-7.5-6-12.7c1.4-4,5.2-6.6,9.4-6.6
    c1.1,0,2.3,0.2,3.4,0.6V30c0-0.9,0.6-1.6,1.5-1.8l30-6.7c0.8-0.2,1.5,0.1,2,0.7C62.7,28,63,29,63,30z" fill="white"/>
  
  <!-- Match symbol -->
  <path d="M77,65c-0.8,0-1.5-0.3-2.1-0.9l-8-8c-1.2-1.2-1.2-3.1,0-4.2c1.2-1.2,3.1-1.2,4.2,0l5.9,5.9l5.9-5.9
    c1.2-1.2,3.1-1.2,4.2,0c1.2,1.2,1.2,3.1,0,4.2l-8,8C78.5,64.7,77.8,65,77,65z" fill="#fed7aa"/>
</svg>